<?xml version="1.0"?>
<svg xmlns="http://www.w3.org/2000/svg" xmlns:xlink="http://www.w3.org/1999/xlink" xmlns:svgjs="http://svgjs.com/svgjs" version="1.1" width="512" height="512" x="0" y="0" viewBox="0 0 511.999 511.999" style="enable-background:new 0 0 512 512" xml:space="preserve" class=""><g>
<g xmlns="http://www.w3.org/2000/svg">
	<g>
		<path d="M487.564,48.941c-35.068-3.357-70.803-3.451-106.013-4.956c-23.276-0.995-46.355,0.861-69.59,1.341    c-11.189,0.231-22.393,0.411-33.537,0.558c-3.18,0.042-6.085,0.33-8.603,1.494c-1.051,0.166-2.194,0.535-3.475,1.226    c-3.744,2.022-6.915,6.864-9.997,9.776c-5.967,5.637-10.838,11.892-14.751,19.101c-2.003,3.69-3.651,7.555-5.262,11.438    c-19.229,26.674-37.658,53.962-55.806,81.438c-4.178-4.228-10.313-7.156-15.318-10.013c-14.212-8.111-27.825-17.044-42.209-24.866    c-11.414-6.207-36.769-27.154-46.478-15.124c-3.839,1.674-7.691,5.573-10.553,7.61c-7.801,5.553-14.728,11.39-21.717,17.91    c-14.43,13.46-31.424,27.06-42.088,43.883c-16.422,25.906,65.504,21.297,77.507,22.626c0.729,5.818,1.57,11.622,2.635,17.398    c3.065,16.63,6.391,33.232,9.84,49.786c1.856,8.902,3.603,17.882,5.953,26.668c1.064,3.98,1.683,8.203,4.812,10.992    c2.557,5.785,7.371,10.479,13.445,15.852c26.774,23.686,62.514,38.566,93.271,56.445c14.789,8.597,29.774,16.751,44.82,24.891    c11.124,6.018,21.771,13.961,33.839,18.539c14.32,5.432,25.68,2.33,39.053-4.025c14.913,4.608,30.254,16.794,43.382,24.911    c7.528,4.655,22.276,16.339,31.411,14.205c2.868-0.67,4.125-3.246,4.472-5.872c1.561-11.847-3.022-26.742-4.659-38.417    c-1.069-7.619-2.293-15.191-3.511-22.789c-0.738-4.601-0.861-9.403-1.92-13.916c1.395-12.552-20.236-20.687-28.278-25.221    c-9.681-5.457-19.68-10.263-29.251-15.921c-7.547-4.461-22.205-10.236-26.799-17.837c-0.229-0.379-0.512-0.698-0.815-0.989    c-0.834-5.725-1.58-11.462-2.117-17.228c-1.045-11.234-3.174-22.303-5.184-33.388c11.292-8.679,24.357-15.776,36.261-23.684    c12.278-8.157,24.361-16.605,36.658-24.73c25.347-16.746,52.477-31.314,78.642-46.772c8.521-5.034,47.155-20.738,28.44-34.392    c-8.667-6.324-22.73-5.936-32.896-7.717c-6.281-1.1-12.114-3.329-18.254-4.921c-1.068-0.277-2.245-0.474-3.468-0.649    c17.018-12.051,33.798-24.445,50.36-37.023c9.494-7.211,30.525-18.535,32.08-31.949C513.452,51.216,497.015,49.846,487.564,48.941    z M36.29,198.322c-6.145-0.153-12.964-0.423-18.921-1.994c-5.777-1.524-5.521-0.412-1.413-5.565    c2.56-3.21,5.373-6.244,8.119-9.293c15.452-17.157,32.143-33.279,48.746-49.327c-1.484,16.067,1.738,32.608,3.452,48.528    c0.691,6.421,1.31,12.85,1.983,19.27C64.44,198.415,50.164,198.668,36.29,198.322z M387.685,399.851    c0.731,8.241,1.786,16.471,2.771,24.686c1.089,9.089,3.797,19.649,4.232,29.424c-3.744-2.213-8.808-5.289-10.042-5.951    c-7.06-3.793-13.601-8.562-20.423-12.753c-6.455-3.966-14.48-9.84-22.575-13.728c4.577-2.488,9.039-4.948,13.307-7.101    c9.251-4.668,18.457-9.357,27.586-14.279c1.519-0.819,3.238-1.655,4.942-2.58C387.569,398.65,387.652,399.482,387.685,399.851z     M330.746,355.333c15.962,9.588,32.882,17.542,48.928,26.976c5.355,3.149,5.16,2.718,0.592,5.698    c-3.534,2.305-8.024,4.245-11.711,6.306c-7.405,4.14-14.958,7.939-22.374,12.044c-6.128,3.392-11.805,7.655-17.849,11.053    c-2.71,1.523-10.346,3.447-11.302,6.853c0.424-1.539,0.766-3.188,1.03-4.952c2.532-16.938,1.783-34.058-0.37-50.992    c-0.942-7.412-2.12-14.788-3.318-22.159C320.052,349.803,326.449,352.752,330.746,355.333z M104.528,290.372    c-0.202-2.191-0.428-4.327-0.755-6.317c-2.255-13.736-4.813-27.461-7.301-41.159c-4.858-26.746-7.242-53.607-10.161-80.619    c-0.633-5.863-1.254-11.742-1.484-17.638c-0.118-3.02-0.239-6.091-0.07-9.112c0.401-7.137,0.087-8.419,6.509-4.805    c9.91,5.576,19.249,12.035,29.269,17.447c18.047,9.747,36.319,20.726,52.88,32.998c-16.681,25.387-33.185,50.884-49.89,76.177    C116.768,267.575,109.028,278.563,104.528,290.372z M305.813,374.6c0.716,7.855,1.466,15.832,1.292,23.727    c-0.083,3.74,0.571,21.972-3.31,24.628c-3.671,2.513-19.365-7.533-22.47-9.114c-6.817-3.469-13.639-6.922-20.378-10.542    c-13.573-7.29-27.197-14.439-40.503-22.204c-27.223-15.888-56.023-29.786-82.44-46.982c-6.479-4.217-12.346-9.269-17.903-14.623    c-7.978-7.688-7.591-15.984-3.492-25.578c6.542-15.314,16.409-28.843,25.362-42.783c19.89-30.971,39.73-61.904,59.928-92.672    c8.067-12.288,15.84-24.76,23.54-37.273c5.005-7.219,9.705-14.672,14-22.287c1.015-1.8,2.001-3.59,2.979-5.372    c4.498-7.303,9.032-14.58,13.627-21.816c2.208-2.75,4.643-5.377,7.411-7.847c0.988-0.881,3.361-1.998,3.986-3.164    c0.097-0.084,0.194-0.168,0.291-0.252c-1.489,4.795,3.14,19.793,3.785,25.006c2.007,16.211,2.656,32.512,4.119,48.759    c5.835,64.805,13.27,129.804,23.307,194.044C301.35,343.662,304.398,359.055,305.813,374.6z M460.104,152.271    c1.619,0.29,14.377,1.983,14.758,3.381c0.195,0.718-13.565,8.071-15.372,9.143c-11.417,6.772-22.768,13.671-34.228,20.369    c-23.022,13.454-45.831,26.985-68.074,41.667c-10.783,7.117-21.526,14.289-32.249,21.501c-7.561,5.085-15.828,9.294-23.162,14.682    c-0.772-5.011-1.425-10.039-1.837-15.104c-0.534-6.559-1.183-13.109-1.872-19.657c24.465-21.717,52.256-42.213,79.782-59.816    c14.049-8.985,27.919-18.305,41.64-27.854c2.889,1.369,6.191,2.201,9.014,3.291C439.025,147.935,449.004,150.282,460.104,152.271z     M496.136,68.944c-1.395,3.191-8.573,6.786-11.704,9.214c-35.668,27.659-72.842,54.193-111.012,78.317    c-15.546,9.825-30.998,20.423-45.287,31.954c-10.186,8.22-21.734,15.871-31.745,24.667c-3.236-27.697-7.124-55.346-9.307-83.12    c-1.687-21.458-3.582-42.759-6.542-64.093c-0.355-2.562-0.832-6.471-1.878-10.049c1.126,0.21,2.178,0.416,3.021,0.483    c6.306,0.499,12.478,0.238,18.804,0.159c10.7-0.133,21.342-0.207,32.042-0.661c21.316-0.905,42.466-0.222,63.755,0.822    c19.831,0.972,39.709,1.585,59.512,2.774c8.576,0.515,17.179,0.626,25.743,1.194C487.106,60.973,500.481,58.99,496.136,68.944z" fill="#ffffff" data-original="#000000" style="" class=""/>
	</g>
</g>
<g xmlns="http://www.w3.org/2000/svg">
</g>
<g xmlns="http://www.w3.org/2000/svg">
</g>
<g xmlns="http://www.w3.org/2000/svg">
</g>
<g xmlns="http://www.w3.org/2000/svg">
</g>
<g xmlns="http://www.w3.org/2000/svg">
</g>
<g xmlns="http://www.w3.org/2000/svg">
</g>
<g xmlns="http://www.w3.org/2000/svg">
</g>
<g xmlns="http://www.w3.org/2000/svg">
</g>
<g xmlns="http://www.w3.org/2000/svg">
</g>
<g xmlns="http://www.w3.org/2000/svg">
</g>
<g xmlns="http://www.w3.org/2000/svg">
</g>
<g xmlns="http://www.w3.org/2000/svg">
</g>
<g xmlns="http://www.w3.org/2000/svg">
</g>
<g xmlns="http://www.w3.org/2000/svg">
</g>
<g xmlns="http://www.w3.org/2000/svg">
</g>
</g></svg>
